<svg width="150" height="126" viewBox="0 0 150 126" fill="none" xmlns="http://www.w3.org/2000/svg">
<g id="Group 15">
<g id="Vector 29">
<path d="M34.7324 54.542C41.5126 42.8308 56.4256 33.4433 63.3756 30.0308C63.5937 29.9238 63.737 29.713 63.7697 29.4723C66.373 10.2995 89.7078 3.3031 93.8097 2.07325L93.8821 2.05155C96.9647 1.12677 96.7623 19.5832 96.2578 29.383C96.2426 29.6766 96.4046 29.9404 96.6714 30.0638C103.252 33.1086 116.792 41.2973 121.694 51.4082C122.81 53.7105 123.831 56.5345 124.753 59.6345C130.393 54.4116 141.672 43.339 141.672 40.832C141.672 37.8021 147.897 58.5746 142.291 64.9113C141.995 65.246 141.991 65.7737 142.327 66.0685C145.372 68.7401 149.781 73.6536 147.156 75.695C144.336 77.8887 133.721 77.9148 128.766 77.6536C129.668 82.9756 130.302 87.8639 130.656 91.2867C130.686 91.5713 130.882 91.8054 131.144 91.9215C136.233 94.1824 143.575 108.766 141.672 114.475C140.135 119.085 130.689 116.537 125.891 114.59C125.71 114.517 125.518 114.517 125.34 114.594C118.328 117.636 99.6367 123.567 78.605 123.876C57.4064 124.188 35.4843 117.806 27.0297 114.526C26.9394 114.491 26.8517 114.477 26.7548 114.48C19.2603 114.735 4.08796 114.616 2.21969 112.125C0.339431 109.618 13.9317 101.157 20.9628 97.2394C21.1861 82.7475 27.3907 67.2232 34.7324 54.542Z" fill="#7CACDE"/>
<path d="M21.414 104.682C21.0659 102.246 20.924 99.7583 20.9628 97.2395M20.9628 97.2395C21.1861 82.7475 27.3907 67.2232 34.7324 54.542C41.5126 42.8308 56.4256 33.4433 63.3756 30.0308C63.5937 29.9238 63.737 29.713 63.7697 29.4723C66.3888 10.1834 89.9911 3.21885 93.8821 2.05155C96.9647 1.12677 96.7623 19.5832 96.2578 29.383C96.2426 29.6766 96.4046 29.9404 96.6714 30.0638C103.252 33.1086 116.792 41.2973 121.694 51.4082C122.81 53.7105 123.831 56.5345 124.753 59.6345M20.9628 97.2395C13.9317 101.157 0.339431 109.618 2.21969 112.125C4.08796 114.616 19.2603 114.735 26.7548 114.48C26.8517 114.477 26.9393 114.491 27.0297 114.526C35.4843 117.806 57.4064 124.188 78.605 123.876C99.6367 123.567 118.328 117.636 125.34 114.594C125.518 114.517 125.71 114.517 125.891 114.59C130.689 116.537 140.135 119.085 141.672 114.475C143.575 108.766 136.233 94.1824 131.144 91.9215C130.882 91.8054 130.686 91.5713 130.656 91.2867C130.302 87.8639 129.668 82.9756 128.766 77.6536M124.753 59.6345C130.393 54.4116 141.672 43.339 141.672 40.832C141.672 37.8021 147.897 58.5746 142.291 64.9113C141.995 65.246 141.991 65.7737 142.327 66.0685C145.372 68.7401 149.781 73.6537 147.156 75.695C144.336 77.8887 133.721 77.9148 128.766 77.6536M124.753 59.6345C126.415 65.223 127.758 71.7089 128.766 77.6536" stroke="#2E2E2E" stroke-width="2.84393" stroke-linecap="round" stroke-linejoin="round"/>
</g>
<path id="Vector 30" d="M62.0365 76.2781C60.8663 76.3951 60.5169 77.6757 61.8618 77.6757C63.163 77.6757 62.7775 76.6275 61.6871 76.6275" stroke="#181818" stroke-width="2.13295" stroke-linecap="round"/>
<path id="Vector 31" d="M91.3862 75.9283C89.7987 76.1047 91.3674 77.6903 92.3567 76.8989C93.8032 75.7417 90.9667 75.9283 90.338 75.9283" stroke="#181818" stroke-width="2.13295" stroke-linecap="round"/>
<path id="Vector 32" d="M74.2655 84.6636C74.5012 86.7846 84.3197 86.2181 85.4463 83.9648" stroke="#181818" stroke-width="2.13295" stroke-linecap="round"/>
<path id="Ellipse 18" d="M110.306 117.539C110.306 117.539 110.306 117.539 110.305 117.541L110.306 117.539ZM110.035 117.299C110.19 117.436 110.259 117.53 110.288 117.58C110.26 117.634 110.187 117.744 110.009 117.908C109.671 118.222 109.095 118.597 108.229 119.001C106.508 119.805 103.932 120.594 100.647 121.284C94.0989 122.661 84.9941 123.596 74.9029 123.596C64.8117 123.596 55.7069 122.661 49.1586 121.284C45.8739 120.594 43.298 119.805 41.5765 119.001C40.7107 118.597 40.1346 118.222 39.7963 117.908C39.6189 117.744 39.5461 117.634 39.5174 117.58C39.5465 117.53 39.6154 117.436 39.771 117.299C40.1003 117.008 40.6686 116.661 41.5339 116.291C43.2534 115.555 45.8289 114.861 49.1191 114.266C55.6762 113.08 64.7929 112.338 74.9029 112.338C85.0128 112.338 94.1295 113.08 100.687 114.266C103.977 114.861 106.552 115.555 108.272 116.291C109.137 116.661 109.705 117.008 110.035 117.299ZM39.4998 117.539C39.4999 117.539 39.5001 117.539 39.5004 117.541L39.4998 117.539ZM39.4976 117.622C39.4974 117.622 39.4979 117.62 39.4996 117.615C39.4986 117.62 39.4978 117.622 39.4976 117.622ZM110.306 117.615C110.308 117.62 110.308 117.622 110.308 117.622C110.308 117.622 110.307 117.62 110.306 117.615Z" fill="white" stroke="#2E2E2E" stroke-width="2.84393"/>
<ellipse id="Ellipse 19" cx="51.5072" cy="46.77" rx="9.00955" ry="3.59208" transform="rotate(-33.1114 51.5072 46.77)" fill="white"/>
<ellipse id="Ellipse 20" cx="55.1482" cy="50.902" rx="3.68695" ry="2.64288" transform="rotate(-33.1114 55.1482 50.902)" fill="white"/>
</g>
</svg>
